<svg width="249" height="87" viewBox="0 0 249 87" fill="none" xmlns="http://www.w3.org/2000/svg">
<path d="M99.1531 69.7812C96.2625 69.7812 93.6584 69.0651 91.3406 67.6328C88.9969 66.2005 87.1089 64.2734 85.6766 61.8516C84.2703 59.4297 83.5672 56.7214 83.5672 53.7266V28.375C83.5672 25.4583 84.2834 22.8021 85.7156 20.4062C87.1219 17.9844 89.0099 16.0573 91.3797 14.625C93.7495 13.1667 96.3406 12.4375 99.1531 12.4375C102.096 12.4375 104.752 13.1406 107.122 14.5469C109.492 15.9792 111.367 17.8932 112.747 20.2891C114.153 22.6849 114.856 25.3802 114.856 28.375V32.0469C114.856 32.2552 114.726 32.3594 114.466 32.3594H105.481C105.273 32.3594 105.169 32.2552 105.169 32.0469V29C105.169 26.9688 104.596 25.2891 103.45 23.9609C102.304 22.6328 100.872 21.9688 99.1531 21.9688C97.6167 21.9688 96.2495 22.6068 95.0516 23.8828C93.8537 25.1589 93.2547 26.6562 93.2547 28.375V53.7266C93.2547 55.4714 93.8406 56.9818 95.0125 58.2578C96.1844 59.5078 97.5646 60.1328 99.1531 60.1328C100.872 60.1328 102.304 59.5208 103.45 58.2969C104.596 57.0469 105.169 55.5234 105.169 53.7266V49.7812H99.5828C99.2964 49.7812 99.1531 49.651 99.1531 49.3906V40.4453C99.1531 40.1849 99.2964 40.0547 99.5828 40.0547H114.544C114.752 40.0547 114.856 40.1849 114.856 40.4453V53.7266C114.856 56.7214 114.153 59.4297 112.747 61.8516C111.315 64.2734 109.427 66.2005 107.083 67.6328C104.739 69.0651 102.096 69.7812 99.1531 69.7812ZM133.095 69H124.033C123.824 69 123.72 68.8698 123.72 68.6094L123.877 13.6484C123.877 13.4401 123.981 13.3359 124.189 13.3359H140.361C143.252 13.3359 145.908 14.0391 148.33 15.4453C150.752 16.8516 152.679 18.7396 154.111 21.1094C155.569 23.4792 156.298 26.1615 156.298 29.1562C156.298 31.1094 155.999 32.8802 155.4 34.4688C154.801 36.0573 154.098 37.3984 153.291 38.4922C152.509 39.5859 151.793 40.3932 151.142 40.9141C154.033 44.1172 155.478 47.8802 155.478 52.2031L155.556 68.6094C155.556 68.8698 155.426 69 155.166 69H146.103C145.895 69 145.791 68.9219 145.791 68.7656V52.2031C145.791 50.276 145.114 48.6094 143.759 47.2031C142.405 45.7969 140.739 45.0938 138.759 45.0938H133.486L133.408 68.6094C133.408 68.8698 133.304 69 133.095 69ZM140.361 22.9062H133.486V35.4844H140.361C142.002 35.4844 143.46 34.8724 144.736 33.6484C146.038 32.4245 146.689 30.9271 146.689 29.1562C146.689 27.4635 146.064 26.0052 144.814 24.7812C143.564 23.5312 142.08 22.9062 140.361 22.9062ZM161.178 68.6094L171.1 13.6484C171.152 13.4401 171.282 13.3359 171.491 13.3359H183.092C183.301 13.3359 183.431 13.4401 183.483 13.6484L193.014 68.6094C193.04 68.8698 192.936 69 192.702 69H183.834C183.574 69 183.431 68.8698 183.405 68.6094L182.545 62.75H171.647L170.788 68.6094C170.761 68.8698 170.631 69 170.397 69H161.491C161.282 69 161.178 68.8698 161.178 68.6094ZM176.842 31.7344L173.248 54.1953H180.944L177.663 31.7344L177.194 28.7656L176.842 31.7344ZM210.589 69H201.527C201.318 69 201.214 68.8698 201.214 68.6094L201.37 13.6484C201.37 13.4401 201.474 13.3359 201.683 13.3359H211.448C211.657 13.3359 211.839 13.4401 211.995 13.6484L219.3 24.1953L226.566 13.6484C226.722 13.4401 226.917 13.3359 227.152 13.3359H236.956C237.191 13.3359 237.308 13.4401 237.308 13.6484L237.464 68.6094C237.464 68.8698 237.36 69 237.152 69H228.089C227.881 69 227.777 68.8698 227.777 68.6094L227.698 27.7891L219.3 39.9766L210.98 27.7891L210.902 68.6094C210.902 68.8698 210.797 69 210.589 69Z" fill="black"/>
<mask id="path-2-outside-1_172_1323" maskUnits="userSpaceOnUse" x="11.123" y="1.2334" width="54" height="78" fill="black">
<rect fill="white" x="11.123" y="1.2334" width="54" height="78"/>
<path d="M27.14 75.2334H15.8119C15.5514 75.2334 15.4212 75.0706 15.4212 74.7451L15.6166 6.04395C15.6166 5.78353 15.7468 5.65332 16.0072 5.65332H28.2142C28.4746 5.65332 28.7025 5.78353 28.8978 6.04395L38.0287 19.2275L47.1107 6.04395C47.306 5.78353 47.5501 5.65332 47.8431 5.65332H60.099C60.3919 5.65332 60.5384 5.78353 60.5384 6.04395L60.7337 74.7451C60.7337 75.0706 60.6035 75.2334 60.3431 75.2334H49.015C48.7546 75.2334 48.6244 75.0706 48.6244 74.7451L48.5267 23.7197L38.0287 38.9541L27.6283 23.7197L27.5306 74.7451C27.5306 75.0706 27.4004 75.2334 27.14 75.2334Z"/>
</mask>
<path d="M27.14 75.2334H15.8119C15.5514 75.2334 15.4212 75.0706 15.4212 74.7451L15.6166 6.04395C15.6166 5.78353 15.7468 5.65332 16.0072 5.65332H28.2142C28.4746 5.65332 28.7025 5.78353 28.8978 6.04395L38.0287 19.2275L47.1107 6.04395C47.306 5.78353 47.5501 5.65332 47.8431 5.65332H60.099C60.3919 5.65332 60.5384 5.78353 60.5384 6.04395L60.7337 74.7451C60.7337 75.0706 60.6035 75.2334 60.3431 75.2334H49.015C48.7546 75.2334 48.6244 75.0706 48.6244 74.7451L48.5267 23.7197L38.0287 38.9541L27.6283 23.7197L27.5306 74.7451C27.5306 75.0706 27.4004 75.2334 27.14 75.2334Z" fill="#FFB636"/>
<path d="M15.4212 74.7451L11.4212 74.7337V74.7451H15.4212ZM15.6166 6.04395L19.6166 6.05532V6.04395H15.6166ZM28.8978 6.04395L32.1861 3.76647L32.1431 3.70437L32.0978 3.64395L28.8978 6.04395ZM38.0287 19.2275L34.7403 21.505L38.0375 26.2656L41.3227 21.4968L38.0287 19.2275ZM47.1107 6.04395L43.9107 3.64395L43.8624 3.70839L43.8167 3.77472L47.1107 6.04395ZM60.5384 6.04395L56.5384 6.04395L56.5384 6.05532L60.5384 6.04395ZM60.7337 74.7451L64.7338 74.7451L64.7337 74.7337L60.7337 74.7451ZM48.6244 74.7451L52.6244 74.7451L52.6244 74.7375L48.6244 74.7451ZM48.5267 23.7197L52.5267 23.7121L52.5022 10.9013L45.233 21.45L48.5267 23.7197ZM38.0287 38.9541L34.7251 41.2094L38.0132 46.0259L41.3224 41.2238L38.0287 38.9541ZM27.6283 23.7197L30.9318 21.4644L23.653 10.8024L23.6283 23.7121L27.6283 23.7197ZM27.5306 74.7451L23.5306 74.7375V74.7451H27.5306ZM27.14 71.2334H15.8119V79.2334H27.14V71.2334ZM15.8119 71.2334C16.5645 71.2334 17.7626 71.5128 18.6424 72.6125C19.3858 73.5418 19.4212 74.4805 19.4212 74.7451H11.4212C11.4212 75.3352 11.5218 76.5181 12.3954 77.6101C13.4054 78.8726 14.7988 79.2334 15.8119 79.2334V71.2334ZM19.4212 74.7565L19.6165 6.05532L11.6166 6.03257L11.4213 74.7337L19.4212 74.7565ZM19.6166 6.04395C19.6166 6.53032 19.4922 7.62979 18.5426 8.5794C17.593 9.52902 16.4935 9.65332 16.0072 9.65332V1.65332C15.2604 1.65332 13.9656 1.84273 12.8858 2.92255C11.806 4.00237 11.6166 5.29716 11.6166 6.04395H19.6166ZM16.0072 9.65332H28.2142V1.65332H16.0072V9.65332ZM28.2142 9.65332C27.6426 9.65332 27.0814 9.50139 26.5959 9.22395C26.1363 8.96135 25.8514 8.64871 25.6978 8.44395L32.0978 3.64395C31.3565 2.6556 30.0461 1.65332 28.2142 1.65332V9.65332ZM25.6095 8.32142L34.7403 21.505L41.317 16.9501L32.1861 3.76647L25.6095 8.32142ZM41.3227 21.4968L50.4047 8.31317L43.8167 3.77472L34.7346 16.9583L41.3227 21.4968ZM50.3107 8.44395C50.1185 8.70017 49.8005 9.02555 49.3226 9.28039C48.8312 9.54247 48.3134 9.65332 47.8431 9.65332V1.65332C46.1384 1.65332 44.7648 2.5051 43.9107 3.64395L50.3107 8.44395ZM47.8431 9.65332H60.099V1.65332H47.8431V9.65332ZM60.099 9.65332C59.7373 9.65332 58.719 9.58317 57.7711 8.74061C56.7334 7.81825 56.5384 6.66034 56.5384 6.04395H64.5384C64.5384 5.16713 64.2702 3.81391 63.086 2.76134C61.9917 1.78857 60.7536 1.65332 60.099 1.65332V9.65332ZM56.5384 6.05532L56.7338 74.7565L64.7337 74.7337L64.5384 6.03257L56.5384 6.05532ZM56.7337 74.7451C56.7337 74.4805 56.7692 73.5418 57.5126 72.6125C58.3924 71.5128 59.5905 71.2334 60.3431 71.2334V79.2334C61.3561 79.2334 62.7496 78.8726 63.7596 77.6101C64.6332 76.5181 64.7337 75.3352 64.7337 74.7451H56.7337ZM60.3431 71.2334H49.015V79.2334H60.3431V71.2334ZM49.015 71.2334C49.7676 71.2334 50.9657 71.5128 51.8455 72.6125C52.5889 73.5418 52.6244 74.4805 52.6244 74.7451H44.6244C44.6244 75.3352 44.7249 76.5181 45.5985 77.6101C46.6085 78.8726 48.002 79.2334 49.015 79.2334V71.2334ZM52.6244 74.7375L52.5267 23.7121L44.5267 23.7274L44.6244 74.7528L52.6244 74.7375ZM45.233 21.45L34.735 36.6844L41.3224 41.2238L51.8204 25.9894L45.233 21.45ZM41.3322 36.6988L30.9318 21.4644L24.3247 25.975L34.7251 41.2094L41.3322 36.6988ZM23.6283 23.7121L23.5306 74.7375L31.5306 74.7528L31.6283 23.7274L23.6283 23.7121ZM23.5306 74.7451C23.5306 74.4805 23.566 73.5418 24.3095 72.6125C25.1893 71.5128 26.3874 71.2334 27.14 71.2334V79.2334C28.153 79.2334 29.5464 78.8726 30.5564 77.6101C31.4301 76.5181 31.5306 75.3352 31.5306 74.7451H23.5306Z" fill="black" mask="url(#path-2-outside-1_172_1323)"/>
</svg>
