<svg width="249" height="87" viewBox="0 0 249 87" fill="none" xmlns="http://www.w3.org/2000/svg">
<path d="M99.1531 69.7812C96.2625 69.7812 93.6584 69.0651 91.3406 67.6328C88.9969 66.2005 87.1089 64.2734 85.6766 61.8516C84.2703 59.4297 83.5672 56.7214 83.5672 53.7266V28.375C83.5672 25.4583 84.2834 22.8021 85.7156 20.4062C87.1219 17.9844 89.0099 16.0573 91.3797 14.625C93.7495 13.1667 96.3406 12.4375 99.1531 12.4375C102.096 12.4375 104.752 13.1406 107.122 14.5469C109.492 15.9792 111.367 17.8932 112.747 20.2891C114.153 22.6849 114.856 25.3802 114.856 28.375V32.0469C114.856 32.2552 114.726 32.3594 114.466 32.3594H105.481C105.273 32.3594 105.169 32.2552 105.169 32.0469V29C105.169 26.9688 104.596 25.2891 103.45 23.9609C102.304 22.6328 100.872 21.9688 99.1531 21.9688C97.6167 21.9688 96.2495 22.6068 95.0516 23.8828C93.8537 25.1589 93.2547 26.6562 93.2547 28.375V53.7266C93.2547 55.4714 93.8406 56.9818 95.0125 58.2578C96.1844 59.5078 97.5646 60.1328 99.1531 60.1328C100.872 60.1328 102.304 59.5208 103.45 58.2969C104.596 57.0469 105.169 55.5234 105.169 53.7266V49.7812H99.5828C99.2964 49.7812 99.1531 49.651 99.1531 49.3906V40.4453C99.1531 40.1849 99.2964 40.0547 99.5828 40.0547H114.544C114.752 40.0547 114.856 40.1849 114.856 40.4453V53.7266C114.856 56.7214 114.153 59.4297 112.747 61.8516C111.315 64.2734 109.427 66.2005 107.083 67.6328C104.739 69.0651 102.096 69.7812 99.1531 69.7812ZM133.095 69H124.033C123.824 69 123.72 68.8698 123.72 68.6094L123.877 13.6484C123.877 13.4401 123.981 13.3359 124.189 13.3359H140.361C143.252 13.3359 145.908 14.0391 148.33 15.4453C150.752 16.8516 152.679 18.7396 154.111 21.1094C155.569 23.4792 156.298 26.1615 156.298 29.1562C156.298 31.1094 155.999 32.8802 155.4 34.4688C154.801 36.0573 154.098 37.3984 153.291 38.4922C152.509 39.5859 151.793 40.3932 151.142 40.9141C154.033 44.1172 155.478 47.8802 155.478 52.2031L155.556 68.6094C155.556 68.8698 155.426 69 155.166 69H146.103C145.895 69 145.791 68.9219 145.791 68.7656V52.2031C145.791 50.276 145.114 48.6094 143.759 47.2031C142.405 45.7969 140.739 45.0938 138.759 45.0938H133.486L133.408 68.6094C133.408 68.8698 133.304 69 133.095 69ZM140.361 22.9062H133.486V35.4844H140.361C142.002 35.4844 143.46 34.8724 144.736 33.6484C146.038 32.4245 146.689 30.9271 146.689 29.1562C146.689 27.4635 146.064 26.0052 144.814 24.7812C143.564 23.5312 142.08 22.9062 140.361 22.9062ZM161.178 68.6094L171.1 13.6484C171.152 13.4401 171.282 13.3359 171.491 13.3359H183.092C183.301 13.3359 183.431 13.4401 183.483 13.6484L193.014 68.6094C193.04 68.8698 192.936 69 192.702 69H183.834C183.574 69 183.431 68.8698 183.405 68.6094L182.545 62.75H171.647L170.788 68.6094C170.761 68.8698 170.631 69 170.397 69H161.491C161.282 69 161.178 68.8698 161.178 68.6094ZM176.842 31.7344L173.248 54.1953H180.944L177.663 31.7344L177.194 28.7656L176.842 31.7344ZM210.589 69H201.527C201.318 69 201.214 68.8698 201.214 68.6094L201.37 13.6484C201.37 13.4401 201.474 13.3359 201.683 13.3359H211.448C211.657 13.3359 211.839 13.4401 211.995 13.6484L219.3 24.1953L226.566 13.6484C226.722 13.4401 226.917 13.3359 227.152 13.3359H236.956C237.191 13.3359 237.308 13.4401 237.308 13.6484L237.464 68.6094C237.464 68.8698 237.36 69 237.152 69H228.089C227.881 69 227.777 68.8698 227.777 68.6094L227.698 27.7891L219.3 39.9766L210.98 27.7891L210.902 68.6094C210.902 68.8698 210.797 69 210.589 69Z" fill="black"/>
<mask id="path-2-outside-1_172_1323" maskUnits="userSpaceOnUse" x="13.123" y="0.233398" width="48" height="80" fill="black">
<rect fill="white" x="13.123" y="0.233398" width="48" height="80"/>
<path d="M37.4916 76.21C33.9434 76.21 30.6719 75.2985 27.6771 73.4756C24.7149 71.6527 22.3386 69.2275 20.5482 66.2002C18.7904 63.1403 17.9115 59.7874 17.9115 56.1416V51.5518C17.9115 51.1937 18.0742 51.0146 18.3998 51.0146H29.6302C29.8906 51.0146 30.0208 51.1937 30.0208 51.5518V56.1416C30.0208 58.3226 30.7533 60.2106 32.2181 61.8057C33.683 63.3682 35.4408 64.1494 37.4916 64.1494C39.5749 64.1494 41.349 63.3519 42.8138 61.7568C44.2787 60.1292 45.0111 58.2575 45.0111 56.1416C45.0111 53.7002 43.416 51.568 40.2259 49.7451C39.7051 49.4196 39.0215 49.029 38.1751 48.5732C37.3613 48.085 36.3848 47.5316 35.2455 46.9131C34.1061 46.2946 32.9994 45.6924 31.9251 45.1064C30.8509 44.488 29.8093 43.902 28.8001 43.3486C25.1543 41.2002 22.4362 38.5146 20.6458 35.292C18.888 32.0368 18.0091 28.391 18.0091 24.3545C18.0091 20.6436 18.9206 17.2907 20.7435 14.2959C22.5664 11.3337 24.9427 8.98991 27.8724 7.26465C30.8346 5.50684 34.041 4.62793 37.4916 4.62793C41.0397 4.62793 44.2949 5.50684 47.2572 7.26465C50.2194 9.05501 52.5794 11.4313 54.3373 14.3936C56.1276 17.3558 57.0228 20.6761 57.0228 24.3545V32.5576C57.0228 32.818 56.8926 32.9482 56.6322 32.9482H45.4017C45.1413 32.9482 45.0111 32.818 45.0111 32.5576L44.9134 24.3545C44.9134 22.0107 44.181 20.1064 42.7162 18.6416C41.2513 17.1768 39.5098 16.4443 37.4916 16.4443C35.4408 16.4443 33.683 17.2256 32.2181 18.7881C30.7533 20.3506 30.0208 22.2061 30.0208 24.3545C30.0208 26.5355 30.4766 28.3584 31.388 29.8232C32.332 31.2881 34.041 32.6878 36.515 34.0225C36.7754 34.1527 37.3776 34.4782 38.3216 34.999C39.2656 35.5199 40.3073 36.1058 41.4466 36.7568C42.6185 37.3753 43.6764 37.945 44.6205 38.4658C45.5645 38.9541 46.1341 39.2471 46.3294 39.3447C49.6498 41.2002 52.2702 43.4788 54.1908 46.1807C56.1439 48.8825 57.1205 52.2028 57.1205 56.1416C57.1205 59.9502 56.2416 63.3682 54.4837 66.3955C52.6934 69.4229 50.3171 71.8154 47.3548 73.5732C44.3926 75.3311 41.1048 76.21 37.4916 76.21Z"/>
</mask>
<path d="M37.4916 76.21C33.9434 76.21 30.6719 75.2985 27.6771 73.4756C24.7149 71.6527 22.3386 69.2275 20.5482 66.2002C18.7904 63.1403 17.9115 59.7874 17.9115 56.1416V51.5518C17.9115 51.1937 18.0742 51.0146 18.3998 51.0146H29.6302C29.8906 51.0146 30.0208 51.1937 30.0208 51.5518V56.1416C30.0208 58.3226 30.7533 60.2106 32.2181 61.8057C33.683 63.3682 35.4408 64.1494 37.4916 64.1494C39.5749 64.1494 41.349 63.3519 42.8138 61.7568C44.2787 60.1292 45.0111 58.2575 45.0111 56.1416C45.0111 53.7002 43.416 51.568 40.2259 49.7451C39.7051 49.4196 39.0215 49.029 38.1751 48.5732C37.3613 48.085 36.3848 47.5316 35.2455 46.9131C34.1061 46.2946 32.9994 45.6924 31.9251 45.1064C30.8509 44.488 29.8093 43.902 28.8001 43.3486C25.1543 41.2002 22.4362 38.5146 20.6458 35.292C18.888 32.0368 18.0091 28.391 18.0091 24.3545C18.0091 20.6436 18.9206 17.2907 20.7435 14.2959C22.5664 11.3337 24.9427 8.98991 27.8724 7.26465C30.8346 5.50684 34.041 4.62793 37.4916 4.62793C41.0397 4.62793 44.2949 5.50684 47.2572 7.26465C50.2194 9.05501 52.5794 11.4313 54.3373 14.3936C56.1276 17.3558 57.0228 20.6761 57.0228 24.3545V32.5576C57.0228 32.818 56.8926 32.9482 56.6322 32.9482H45.4017C45.1413 32.9482 45.0111 32.818 45.0111 32.5576L44.9134 24.3545C44.9134 22.0107 44.181 20.1064 42.7162 18.6416C41.2513 17.1768 39.5098 16.4443 37.4916 16.4443C35.4408 16.4443 33.683 17.2256 32.2181 18.7881C30.7533 20.3506 30.0208 22.2061 30.0208 24.3545C30.0208 26.5355 30.4766 28.3584 31.388 29.8232C32.332 31.2881 34.041 32.6878 36.515 34.0225C36.7754 34.1527 37.3776 34.4782 38.3216 34.999C39.2656 35.5199 40.3073 36.1058 41.4466 36.7568C42.6185 37.3753 43.6764 37.945 44.6205 38.4658C45.5645 38.9541 46.1341 39.2471 46.3294 39.3447C49.6498 41.2002 52.2702 43.4788 54.1908 46.1807C56.1439 48.8825 57.1205 52.2028 57.1205 56.1416C57.1205 59.9502 56.2416 63.3682 54.4837 66.3955C52.6934 69.4229 50.3171 71.8154 47.3548 73.5732C44.3926 75.3311 41.1048 76.21 37.4916 76.21Z" fill="#FFB636"/>
<path d="M27.6771 73.4756L25.5807 76.8822L25.589 76.8873L25.5973 76.8924L27.6771 73.4756ZM20.5482 66.2002L17.0798 68.1927L17.0924 68.2146L17.1052 68.2364L20.5482 66.2002ZM32.2181 61.8057L29.272 64.5113L29.2859 64.5264L29.3 64.5414L32.2181 61.8057ZM42.8138 61.7568L45.7599 64.4625L45.7735 64.4476L45.787 64.4327L42.8138 61.7568ZM40.2259 49.7451L38.1059 53.1371L38.1729 53.1789L38.2414 53.2181L40.2259 49.7451ZM38.1751 48.5732L36.1172 52.0032L36.1969 52.051L36.2787 52.0951L38.1751 48.5732ZM31.9251 45.1064L29.9293 48.5729L29.9693 48.5959L30.0097 48.618L31.9251 45.1064ZM28.8001 43.3486L26.7694 46.7948L26.8226 46.8262L26.8768 46.8559L28.8001 43.3486ZM20.6458 35.292L17.1262 37.1926L17.1376 37.2136L17.1492 37.2346L20.6458 35.292ZM20.7435 14.2959L17.3369 12.1995L17.3318 12.2078L17.3267 12.2161L20.7435 14.2959ZM27.8724 7.26465L29.9022 10.7114L29.9137 10.7046L27.8724 7.26465ZM47.2572 7.26465L49.3262 3.84133L49.3124 3.83297L49.2985 3.82471L47.2572 7.26465ZM54.3373 14.3936L50.8973 16.4348L50.9056 16.4487L50.9139 16.4626L54.3373 14.3936ZM45.0111 32.5576H49.0111V32.5338L49.0108 32.51L45.0111 32.5576ZM44.9134 24.3545H40.9134V24.3783L40.9137 24.4021L44.9134 24.3545ZM31.388 29.8232L27.9918 31.9364L28.0086 31.9634L28.0258 31.99L31.388 29.8232ZM36.515 34.0225L34.6158 37.5429L34.6705 37.5724L34.7261 37.6002L36.515 34.0225ZM41.4466 36.7568L39.4621 40.2298L39.5203 40.2631L39.5796 40.2944L41.4466 36.7568ZM44.6205 38.4658L42.6881 41.9681L42.7351 41.994L42.7828 42.0187L44.6205 38.4658ZM46.3294 39.3447L48.2807 35.853L48.2005 35.8081L48.1183 35.767L46.3294 39.3447ZM54.1908 46.1807L50.9305 48.4982L50.9398 48.5112L50.9491 48.5241L54.1908 46.1807ZM54.4837 66.3955L57.9267 68.4317L57.9349 68.4179L57.9429 68.404L54.4837 66.3955ZM37.4916 72.21C34.6677 72.21 32.1171 71.4954 29.7569 70.0588L25.5973 76.8924C29.2267 79.1016 33.2191 80.21 37.4916 80.21V72.21ZM29.7735 70.069C27.3712 68.5906 25.4545 66.6385 23.9912 64.164L17.1052 68.2364C19.2226 71.8166 22.0585 74.7147 25.5807 76.8822L29.7735 70.069ZM24.0166 64.2077C22.619 61.7747 21.9115 59.1124 21.9115 56.1416H13.9115C13.9115 60.4624 14.9618 64.5059 17.0798 68.1927L24.0166 64.2077ZM21.9115 56.1416V51.5518H13.9115V56.1416H21.9115ZM21.9115 51.5518C21.9115 51.9 21.8405 52.9077 20.9933 53.8396C20.0804 54.8439 18.957 55.0146 18.3998 55.0146V47.0146C17.517 47.0146 16.1495 47.275 15.0738 48.4582C14.0638 49.5692 13.9115 50.8455 13.9115 51.5518H21.9115ZM18.3998 55.0146H29.6302V47.0146H18.3998V55.0146ZM29.6302 55.0146C28.7374 55.0146 27.5151 54.6385 26.6882 53.5016C26.0335 52.6014 26.0208 51.7386 26.0208 51.5518H34.0208C34.0208 51.0068 33.943 49.8755 33.1581 48.7962C32.2011 47.4803 30.7834 47.0146 29.6302 47.0146V55.0146ZM26.0208 51.5518V56.1416H34.0208V51.5518H26.0208ZM26.0208 56.1416C26.0208 59.3167 27.124 62.1724 29.272 64.5113L35.1642 59.1C34.3825 58.2488 34.0208 57.3284 34.0208 56.1416H26.0208ZM29.3 64.5414C31.4832 66.8702 34.2811 68.1494 37.4916 68.1494V60.1494C36.6005 60.1494 35.8827 59.8661 35.1363 59.0699L29.3 64.5414ZM37.4916 68.1494C40.7439 68.1494 43.5714 66.8455 45.7599 64.4625L39.8677 59.0512C39.1265 59.8583 38.4059 60.1494 37.4916 60.1494V68.1494ZM45.787 64.4327C47.8875 62.0988 49.0111 59.2829 49.0111 56.1416H41.0111C41.0111 57.2321 40.6698 58.1597 39.8406 59.081L45.787 64.4327ZM49.0111 56.1416C49.0111 51.6203 45.9623 48.4161 42.2105 46.2721L38.2414 53.2181C40.8697 54.72 41.0111 55.7801 41.0111 56.1416H49.0111ZM42.3459 46.3531C41.7233 45.964 40.9567 45.528 40.0715 45.0514L36.2787 52.0951C37.0863 52.53 37.6869 52.8752 38.1059 53.1371L42.3459 46.3531ZM40.2331 45.1433C39.356 44.617 38.3268 44.0344 37.1538 43.3977L33.3371 50.4285C34.4428 51.0287 35.3667 51.5529 36.1172 52.0032L40.2331 45.1433ZM37.1538 43.3977C36.0167 42.7804 34.9123 42.1794 33.8406 41.5949L30.0097 48.618C31.0864 49.2053 32.1956 49.8088 33.3371 50.4285L37.1538 43.3977ZM33.921 41.64C32.8246 41.0087 31.7587 40.4091 30.7235 39.8414L26.8768 46.8559C27.8598 47.395 28.8773 47.9672 29.9293 48.5729L33.921 41.64ZM30.8309 39.9025C27.7066 38.0614 25.5383 35.8619 24.1425 33.3494L17.1492 37.2346C19.3341 41.1674 22.602 44.339 26.7694 46.7948L30.8309 39.9025ZM24.1655 33.3914C22.7511 30.7722 22.0091 27.7893 22.0091 24.3545H14.0091C14.0091 28.9926 15.025 33.3014 17.1262 37.1926L24.1655 33.3914ZM22.0091 24.3545C22.0091 21.3324 22.7414 18.7067 24.1603 16.3757L17.3267 12.2161C15.0997 15.8747 14.0091 19.9547 14.0091 24.3545H22.0091ZM24.1501 16.3923C25.6393 13.9724 27.548 12.0977 29.9022 10.7114L25.8427 3.8179C22.3374 5.88208 19.4936 8.69489 17.3369 12.1995L24.1501 16.3923ZM29.9137 10.7046C32.257 9.31405 34.7581 8.62793 37.4916 8.62793V0.62793C33.324 0.62793 29.4123 1.69962 25.8311 3.82471L29.9137 10.7046ZM37.4916 8.62793C40.344 8.62793 42.8906 9.32477 45.2159 10.7046L49.2985 3.82471C45.6992 1.6889 41.7354 0.62793 37.4916 0.62793V8.62793ZM45.1881 10.688C47.5894 12.1393 49.4774 14.042 50.8973 16.4348L57.7772 12.3523C55.6815 8.82062 52.8494 5.97073 49.3262 3.84133L45.1881 10.688ZM50.9139 16.4626C52.3031 18.7611 53.0228 21.3578 53.0228 24.3545H61.0228C61.0228 19.9944 59.9521 15.9505 57.7606 12.3245L50.9139 16.4626ZM53.0228 24.3545V32.5576H61.0228V24.3545H53.0228ZM53.0228 32.5576C53.0228 32.0712 53.1471 30.9718 54.0967 30.0222C55.0463 29.0725 56.1458 28.9482 56.6322 28.9482V36.9482C57.379 36.9482 58.6737 36.7588 59.7536 35.679C60.8334 34.5992 61.0228 33.3044 61.0228 32.5576H53.0228ZM56.6322 28.9482H45.4017V36.9482H56.6322V28.9482ZM45.4017 28.9482C45.8881 28.9482 46.9876 29.0725 47.9372 30.0222C48.8868 30.9718 49.0111 32.0712 49.0111 32.5576H41.0111C41.0111 33.3044 41.2005 34.5992 42.2803 35.679C43.3601 36.7588 44.6549 36.9482 45.4017 36.9482V28.9482ZM49.0108 32.51L48.9131 24.3069L40.9137 24.4021L41.0114 32.6052L49.0108 32.51ZM48.9134 24.3545C48.9134 21.1018 47.8605 18.1291 45.5446 15.8132L39.8877 21.47C40.5015 22.0838 40.9134 22.9197 40.9134 24.3545H48.9134ZM45.5446 15.8132C43.3518 13.6204 40.6016 12.4443 37.4916 12.4443V20.4443C38.4179 20.4443 39.1508 20.7331 39.8877 21.47L45.5446 15.8132ZM37.4916 12.4443C34.2811 12.4443 31.4832 13.7235 29.3 16.0523L35.1363 21.5239C35.8827 20.7277 36.6005 20.4443 37.4916 20.4443V12.4443ZM29.3 16.0523C27.1377 18.3588 26.0208 21.1933 26.0208 24.3545H34.0208C34.0208 23.2188 34.3689 22.3424 35.1363 21.5239L29.3 16.0523ZM26.0208 24.3545C26.0208 27.0869 26.5938 29.6896 27.9918 31.9364L34.7843 27.71C34.3594 27.0271 34.0208 25.9841 34.0208 24.3545H26.0208ZM28.0258 31.99C29.4941 34.2685 31.874 36.0637 34.6158 37.5429L38.4141 30.5021C36.2081 29.312 35.17 28.3077 34.7503 27.6564L28.0258 31.99ZM34.7261 37.6002C34.8986 37.6864 35.4226 37.968 36.3893 38.5013L40.2539 31.4967C39.3326 30.9884 38.6522 30.6189 38.3038 30.4448L34.7261 37.6002ZM36.3893 38.5013C37.3126 39.0107 38.3365 39.5866 39.4621 40.2298L43.4312 33.2839C42.2781 32.6249 41.2187 32.029 40.2539 31.4967L36.3893 38.5013ZM39.5796 40.2944C40.7343 40.9038 41.77 41.4616 42.6881 41.9681L46.5528 34.9635C45.5829 34.4284 44.5027 33.8468 43.3137 33.2193L39.5796 40.2944ZM42.7828 42.0187C43.7146 42.5007 44.3145 42.8094 44.5406 42.9224L48.1183 35.767C47.9538 35.6847 47.4144 35.4075 46.4581 34.9129L42.7828 42.0187ZM44.3782 42.8365C47.2568 44.4452 49.4011 46.3466 50.9305 48.4982L57.451 43.8631C55.1393 40.6111 52.0427 37.9552 48.2807 35.853L44.3782 42.8365ZM50.9491 48.5241C52.3246 50.4268 53.1205 52.8871 53.1205 56.1416H61.1205C61.1205 51.5185 59.9632 47.3382 57.4325 43.8373L50.9491 48.5241ZM53.1205 56.1416C53.1205 59.3087 52.3973 62.0228 51.0246 64.387L57.9429 68.404C60.0858 64.7136 61.1205 60.5917 61.1205 56.1416H53.1205ZM51.0408 64.3593C49.5848 66.8212 47.6855 68.7258 45.3136 70.1333L49.3961 77.0132C52.9486 74.9051 55.8019 72.0245 57.9267 68.4317L51.0408 64.3593ZM45.3136 70.1333C42.9999 71.5062 40.4232 72.21 37.4916 72.21V80.21C41.7865 80.21 45.7853 79.1559 49.3961 77.0132L45.3136 70.1333Z" fill="black" mask="url(#path-2-outside-1_172_1323)"/>
</svg>
